<?xml version="1.0" standalone="no"?>
<!DOCTYPE svg PUBLIC "-//W3C//DTD SVG 20010904//EN"
 "http://www.w3.org/TR/2001/REC-SVG-20010904/DTD/svg10.dtd">
<svg version="1.0" xmlns="http://www.w3.org/2000/svg"
 width="450.000000pt" height="450.000000pt" viewBox="0 0 450.000000 450.000000"
 preserveAspectRatio="xMidYMid meet">
<metadata>
Created by potrace 1.11, written by Peter Selinger 2001-2013
</metadata>
<g transform="translate(0.000000,450.000000) scale(0.100000,-0.100000)"
fill="#000000" stroke="none">
<path d="M1834 4179 c1 -14 -5 -25 -16 -27 -12 -2 -15 2 -12 20 4 21 4 21 -4
3 -5 -11 -7 -27 -4 -35 5 -13 3 -13 -11 -1 -15 12 -17 12 -12 -1 4 -10 -8 -25
-32 -44 -21 -15 -39 -32 -41 -36 -2 -4 -12 -8 -22 -8 -10 0 -22 -4 -25 -10 -3
-5 -11 -10 -18 -10 -8 0 -8 3 1 12 7 7 12 17 12 23 0 5 -4 4 -9 -4 -5 -8 -17
-16 -26 -17 -9 -1 -20 -6 -23 -10 -4 -4 1 -4 11 -1 9 4 17 3 17 -2 0 -14 -39
-20 -44 -7 -2 6 -5 3 -5 -6 -1 -10 -6 -18 -12 -18 -5 0 -8 4 -4 9 3 5 0 13 -6
17 -7 4 -9 3 -6 -3 4 -6 -1 -17 -10 -24 -15 -12 -16 -12 -10 4 4 11 3 16 -3
12 -6 -3 -10 -13 -10 -20 0 -9 -6 -12 -16 -8 -9 3 -19 1 -23 -4 -3 -6 -17 -14
-30 -18 -16 -5 -21 -4 -17 4 5 7 1 9 -8 5 -9 -3 -13 -10 -10 -15 5 -9 -17 -13
-45 -10 -8 2 -10 -2 -5 -11 5 -9 2 -8 -11 2 -10 8 -16 10 -12 4 4 -7 -1 -14
-11 -17 -9 -3 -32 -10 -50 -16 -19 -6 -30 -6 -27 0 4 5 2 9 -3 9 -6 0 -13 -7
-16 -16 -3 -8 -10 -12 -16 -9 -5 3 -10 1 -10 -5 0 -7 -8 -9 -21 -5 -15 5 -19
4 -15 -4 4 -6 2 -11 -3 -11 -6 0 -11 5 -11 10 0 6 -4 10 -10 10 -5 0 -6 -7 -3
-17 4 -11 3 -14 -5 -9 -6 4 -23 -1 -37 -10 -24 -16 -25 -16 -18 2 6 16 5 17
-9 4 -9 -8 -14 -18 -11 -22 6 -10 -40 -10 -52 0 -6 4 -9 5 -8 3 2 -2 -3 -11
-10 -19 -10 -13 -9 -14 3 -7 9 5 8 0 -4 -13 -11 -12 -21 -20 -24 -17 -3 2 -14
-2 -24 -10 -11 -7 -27 -11 -36 -8 -9 4 -13 2 -9 -3 3 -6 -3 -16 -15 -23 -11
-7 -17 -8 -13 -2 3 6 2 11 -3 11 -5 0 -12 -9 -15 -20 -4 -14 -10 -18 -23 -13
-11 4 -15 3 -11 -4 6 -9 -13 -24 -34 -27 -3 -1 -13 -9 -23 -18 -10 -10 -21
-18 -26 -18 -5 0 -7 8 -3 18 7 18 5 17 -17 -12 -10 -13 -10 -17 -2 -12 6 4 12
2 12 -3 0 -11 -11 -14 -27 -8 -5 1 -7 6 -5 10 1 5 -2 6 -7 3 -5 -3 -7 -15 -4
-26 4 -15 2 -19 -10 -14 -8 3 -18 0 -23 -7 -4 -8 -3 -10 4 -5 8 4 10 2 6 -8
-7 -19 -28 -26 -45 -15 -8 5 -18 9 -24 9 -5 -1 -2 -5 7 -11 23 -13 23 -30 1
-22 -10 4 -14 2 -9 -5 3 -6 2 -13 -3 -16 -5 -4 -13 -1 -17 5 -5 8 -3 9 7 4 12
-8 12 -6 0 8 -17 22 -19 21 -17 -5 1 -16 -12 -32 -44 -55 -25 -18 -51 -33 -58
-33 -7 0 -10 -5 -6 -12 5 -8 -2 -9 -27 -4 -31 6 -32 5 -14 -8 16 -12 17 -15 5
-16 -9 0 -22 6 -30 13 -8 6 -6 2 3 -10 14 -16 15 -23 6 -29 -8 -4 -10 -3 -5 4
4 7 2 12 -3 12 -6 0 -11 -5 -11 -11 0 -5 -6 -7 -12 -3 -9 5 -9 2 1 -9 16 -20
1 -23 -18 -4 -11 10 -11 8 -1 -13 13 -24 12 -24 -5 -10 -12 10 -16 10 -11 2
10 -16 -12 -44 -28 -35 -6 3 -8 3 -4 -2 4 -4 2 -17 -4 -29 -7 -11 -12 -33 -11
-48 0 -18 -4 -25 -11 -21 -6 4 -2 -4 9 -17 l20 -23 -20 6 c-19 7 -19 6 1 -10
25 -21 37 -50 24 -58 -6 -4 -10 -12 -10 -18 0 -9 2 -9 8 -1 5 9 11 8 20 -2 7
-8 9 -14 3 -14 -5 0 -11 -7 -15 -15 -3 -8 -2 -14 2 -14 26 4 44 -3 39 -15 -3
-8 1 -22 9 -33 14 -17 14 -16 4 7 -10 23 -10 24 4 6 17 -22 11 -40 -11 -32 -8
3 -11 1 -8 -5 4 -5 16 -7 28 -3 12 3 19 3 14 -1 -4 -5 0 -19 9 -33 9 -13 14
-32 11 -42 -3 -13 0 -17 9 -13 10 4 12 0 7 -13 -5 -13 -3 -15 7 -9 8 5 11 4 6
-3 -3 -5 -3 -12 1 -15 5 -2 2 -2 -5 -1 -6 2 -12 -1 -12 -6 0 -6 7 -10 16 -10
9 0 14 -6 11 -12 -2 -7 -10 -12 -16 -10 -7 1 -10 -2 -6 -8 5 -8 11 -8 19 -1
15 13 26 4 26 -20 0 -9 6 -20 13 -22 6 -3 3 -6 -8 -7 -18 -1 -18 -2 3 -11 13
-5 26 -18 29 -29 3 -11 10 -20 17 -20 6 0 4 -5 -4 -10 -13 -8 -13 -10 2 -10 9
0 25 -11 35 -23 13 -17 24 -22 38 -17 11 4 24 5 28 3 5 -3 17 3 28 13 10 9 19
13 19 9 0 -4 9 0 20 10 11 10 20 15 20 11 0 -3 10 0 23 9 13 8 27 12 30 8 4
-3 7 -1 7 5 0 7 5 12 11 12 5 0 7 -6 4 -12 -4 -7 2 -4 12 8 13 14 29 20 48 19
17 -2 24 -1 18 2 -7 2 -13 10 -13 15 0 6 3 8 6 5 4 -3 16 0 26 8 11 7 27 11
36 8 11 -5 13 -3 7 8 -8 12 -6 12 9 0 15 -12 17 -12 14 0 -2 8 3 13 10 12 6
-2 12 2 12 8 0 5 5 7 10 4 6 -4 7 -12 3 -18 -3 -7 3 -4 14 6 11 9 22 14 26 11
3 -3 13 6 23 20 9 15 19 24 22 21 3 -2 11 0 19 6 15 13 18 -1 3 -19 -7 -9 -7
-9 2 -2 17 14 31 12 22 -2 -5 -10 -3 -10 7 0 11 11 12 14 1 21 -10 6 -8 10 7
14 32 8 36 8 36 -2 0 -5 3 -13 8 -17 4 -4 7 -12 7 -18 0 -6 -5 -4 -10 4 -5 8
-10 11 -10 6 0 -5 8 -18 17 -28 20 -22 27 -51 10 -41 -7 3 -4 -2 5 -13 13 -15
14 -23 6 -39 -11 -19 -10 -19 7 -5 12 10 16 10 11 2 -4 -7 -2 -20 5 -28 6 -8
9 -17 5 -21 -3 -3 -6 -1 -6 5 0 6 -9 10 -19 9 -11 0 -17 -5 -15 -9 3 -5 10 -5
16 -2 7 5 9 1 5 -9 -4 -12 -2 -14 10 -10 12 5 14 3 7 -8 -12 -20 -14 -38 -4
-44 5 -3 7 4 5 15 -2 11 0 18 5 15 5 -3 7 -14 5 -25 -2 -11 1 -22 6 -26 6 -3
3 -12 -8 -21 -10 -8 -13 -12 -6 -9 6 4 14 2 17 -3 4 -5 -2 -12 -11 -14 -17 -4
-17 -5 0 -6 9 0 17 -8 17 -17 0 -10 -6 -14 -15 -11 -8 4 -17 1 -21 -5 -5 -7
-2 -8 6 -3 9 6 12 4 8 -7 -4 -8 0 -15 8 -15 7 0 11 4 8 9 -3 4 0 8 5 8 15 0
14 -13 -2 -29 -6 -8 -7 -11 -1 -8 7 4 10 -18 9 -69 0 -40 3 -74 8 -74 4 0 5
-5 2 -10 -4 -6 -10 -8 -15 -5 -5 3 -12 0 -16 -6 -4 -7 -3 -9 3 -6 6 4 17 -1
24 -10 11 -13 11 -17 2 -20 -16 -6 -17 -33 -2 -33 5 0 7 -5 4 -10 -4 -6 -12
-7 -19 -3 -7 4 -3 0 7 -10 16 -14 17 -20 7 -32 -7 -9 -8 -15 -2 -15 11 0 11
-49 -1 -67 -5 -8 -4 -13 2 -13 6 0 11 -5 11 -11 0 -5 -4 -8 -8 -5 -4 2 -14 0
-22 -5 -12 -8 -11 -9 4 -7 14 2 19 -4 22 -27 2 -18 0 -25 -5 -17 -6 10 -10 9
-13 -6 -4 -13 -2 -19 6 -16 6 2 12 -4 12 -15 0 -11 -4 -17 -8 -15 -4 3 -8 0
-8 -5 0 -6 5 -11 10 -11 6 0 10 -5 10 -10 0 -7 -6 -7 -18 -1 -14 7 -19 6 -19
-3 0 -7 7 -13 15 -12 9 1 16 -8 17 -21 1 -12 -2 -20 -7 -17 -4 3 -8 0 -8 -5 0
-6 5 -11 10 -11 6 0 10 -5 10 -10 0 -7 -6 -7 -18 -1 -14 7 -19 6 -19 -3 0 -7
7 -13 16 -12 25 2 23 -93 -3 -124 -15 -18 -16 -21 -3 -11 26 21 32 6 7 -19
-20 -20 -20 -21 -3 -16 16 5 20 2 19 -18 -2 -29 -24 -58 -40 -49 -6 3 -5 0 3
-8 10 -11 15 -11 18 -1 3 6 9 12 15 12 6 0 3 -11 -6 -24 -11 -18 -13 -27 -4
-32 7 -5 8 -3 3 6 -5 9 -4 11 3 6 8 -5 9 -14 4 -24 -5 -9 -8 -47 -7 -85 1 -37
-2 -67 -7 -67 -5 0 -6 -6 -1 -12 10 -18 13 -68 3 -68 -4 0 -6 13 -5 28 1 18
-3 29 -11 29 -7 0 -10 -5 -6 -11 12 -21 11 -38 -4 -32 -24 9 -15 -3 14 -18
l27 -15 -25 -2 c-17 -1 -20 -3 -7 -6 9 -2 17 -12 17 -21 0 -15 -2 -15 -11 -2
-8 12 -9 11 -6 -5 2 -11 9 -19 16 -17 8 2 9 -3 3 -15 -5 -10 -8 -28 -7 -41 1
-14 -4 -22 -14 -23 -14 0 -14 -1 -1 -7 23 -10 20 -64 -5 -80 -19 -12 -19 -13
5 -7 l25 6 -25 -21 c-16 -14 -19 -20 -8 -16 15 4 16 -4 12 -87 -5 -81 -8 -121
-13 -151 0 -5 -7 -3 -15 3 -11 9 -16 9 -22 0 -4 -7 -3 -9 4 -5 13 8 24 -9 28
-41 2 -20 -1 -23 -19 -17 l-22 6 22 -16 c16 -12 21 -24 18 -49 -2 -17 -4 -34
-5 -37 -1 -3 -2 -13 -1 -22 1 -9 -6 -18 -16 -21 -17 -4 -17 -5 0 -6 19 -1 18
0 22 -53 1 -21 -1 -35 -6 -33 -4 3 -11 0 -15 -6 -5 -8 -3 -9 6 -4 10 6 12 4 6
-10 -6 -16 -4 -16 11 -4 15 13 16 12 9 -6 -9 -24 -14 -43 -9 -32 3 4 10 7 15
7 6 0 8 -3 5 -6 -6 -6 29 -43 42 -45 3 0 24 -2 45 -5 22 -2 44 -9 49 -16 7
-10 10 -10 14 0 4 10 9 9 20 -5 8 -10 12 -12 8 -5 -5 9 2 11 27 6 18 -3 45 -6
61 -6 15 1 27 -3 27 -8 0 -13 29 -20 36 -8 4 6 3 8 -4 4 -6 -3 -13 -3 -16 2
-2 4 6 8 20 8 17 0 23 -4 19 -14 -3 -8 0 -10 8 -5 21 13 88 13 80 0 -5 -9 -3
-9 8 -2 8 6 34 10 59 9 61 -3 60 -2 54 -19 -4 -8 -1 -15 5 -15 6 0 10 3 10 8
-3 18 2 32 11 32 5 0 7 -6 4 -13 -3 -8 2 -14 10 -14 8 0 14 3 12 6 -2 3 16 7
40 8 24 0 42 -2 39 -7 -3 -4 2 -13 9 -19 10 -9 16 -9 21 -1 4 6 3 9 -2 8 -4
-2 -8 1 -8 7 0 5 8 10 17 10 9 1 15 -2 12 -7 -3 -4 -1 -8 5 -8 5 0 12 6 15 13
5 9 7 9 12 0 3 -7 10 -13 15 -13 6 0 7 5 3 12 -5 7 -3 8 5 4 7 -5 10 -15 7
-23 -3 -8 -1 -11 4 -8 6 3 10 12 10 18 0 7 9 13 20 14 11 1 20 -3 20 -8 0 -6
-4 -8 -9 -4 -5 3 -12 1 -15 -4 -4 -5 1 -8 10 -7 8 1 20 9 25 17 7 11 9 11 9 1
0 -8 5 -10 13 -5 18 11 38 13 31 2 -3 -5 -1 -9 5 -9 5 0 12 6 14 13 4 9 6 9 6
0 1 -7 6 -13 12 -13 5 0 7 5 4 10 -3 6 -1 10 4 10 6 0 11 -4 11 -9 0 -16 34
-23 45 -9 13 16 35 21 35 8 0 -6 -5 -10 -11 -10 -5 0 -7 -5 -3 -11 4 -8 11 -3
20 12 13 26 20 26 46 3 14 -14 17 -14 27 3 6 10 11 12 11 6 0 -7 5 -13 11 -13
5 0 8 4 5 8 -3 5 1 9 10 9 10 0 12 -7 8 -20 -4 -13 -2 -17 5 -13 6 4 11 15 11
24 0 15 2 15 10 2 7 -11 10 -11 10 -2 0 8 8 6 22 -7 21 -21 38 -20 38 2 0 8
-3 8 -9 -1 -6 -10 -10 -10 -20 2 -11 13 -9 15 16 13 15 -1 31 -9 35 -17 6 -13
7 -13 7 0 1 12 14 16 64 15 34 0 68 -4 76 -9 10 -6 12 -6 6 3 -5 9 -1 12 11
11 11 -1 21 -1 24 0 15 7 179 6 174 -1 -9 -14 3 -10 20 7 9 9 16 11 16 4 0 -6
5 -8 13 -3 22 14 40 12 56 -5 9 -10 13 -13 9 -8 -12 16 -9 26 8 26 8 0 13 -4
10 -8 -2 -4 4 -8 14 -8 12 0 16 4 10 11 -6 7 2 11 23 12 18 1 41 3 52 6 11 2
26 -1 34 -7 11 -8 13 -8 7 1 -4 7 -3 13 3 13 5 0 12 -6 14 -12 3 -8 6 -6 6 5
1 9 6 17 11 17 10 0 14 -15 10 -35 -1 -5 2 -6 7 -2 4 5 8 16 8 25 0 10 9 18
23 20 12 2 20 8 17 13 -4 5 -1 9 5 9 6 0 8 5 5 10 -3 6 -1 10 5 10 6 0 10 6 9
13 -3 28 2 48 11 42 6 -3 10 -1 10 4 0 6 -4 11 -8 11 -5 0 -9 7 -9 15 0 10 4
12 12 5 7 -6 11 -3 11 9 0 11 -6 17 -13 14 -9 -4 -10 3 -3 29 12 41 12 41 0
33 -5 -3 -7 0 -4 9 3 8 11 14 17 12 7 -1 9 -1 4 1 -4 3 -4 10 -1 15 4 6 2 8
-4 4 -6 -3 -13 -2 -17 4 -5 8 5 13 25 12 3 0 5 10 5 23 0 13 -3 21 -7 18 -5
-2 -8 -11 -8 -19 0 -8 -4 -14 -9 -14 -11 0 -8 70 3 89 6 10 5 12 -2 7 -8 -5
-12 2 -13 18 -2 38 -3 44 -11 51 -10 11 3 36 16 29 6 -3 2 2 -8 10 -11 9 -15
16 -9 16 17 0 24 30 13 48 -9 14 -10 13 -5 -5 3 -12 2 -24 -2 -26 -5 -3 -9 10
-9 28 0 19 3 32 8 29 4 -3 8 0 8 5 0 6 -4 11 -10 11 -17 0 -11 28 8 33 15 4
15 5 1 6 -21 1 -34 31 -14 31 7 0 16 4 19 9 4 5 -4 7 -16 4 -23 -5 -23 -5 -3
12 14 12 15 15 4 12 -13 -4 -15 7 -14 78 0 46 -3 81 -7 79 -4 -3 -5 2 -2 10 3
8 13 12 22 9 14 -4 14 -3 3 5 -12 9 -12 13 -2 26 8 9 10 16 6 16 -4 0 -13 -7
-20 -16 -10 -14 -11 -11 -10 17 0 19 4 40 8 47 5 7 4 12 -2 12 -12 0 -10 27 2
48 5 7 4 12 -2 12 -6 0 -11 4 -11 10 0 5 8 7 18 4 16 -5 16 -5 0 6 -20 12 -25
35 -5 24 6 -4 9 -4 5 1 -4 4 -3 13 2 20 7 8 5 12 -5 12 -8 0 -11 -5 -8 -10 3
-6 1 -7 -5 -3 -15 9 -3 38 12 29 6 -3 6 -1 -1 8 -15 15 -17 53 -3 44 6 -3 7 1
4 9 -3 9 -9 14 -13 12 -3 -2 -6 40 -6 95 0 54 3 99 8 99 4 0 6 -4 3 -8 -2 -4
0 -14 5 -22 7 -12 8 -11 6 5 -1 11 -7 27 -12 35 -12 19 -14 190 -3 190 5 0 7
-4 3 -9 -3 -5 -1 -12 4 -15 5 -4 8 2 6 11 -2 10 -4 22 -4 26 -1 5 -4 6 -8 4
-5 -3 -7 56 -7 131 2 219 2 212 22 206 15 -5 15 -4 1 5 -13 9 -16 24 -12 78 2
38 4 76 4 86 0 11 5 15 12 10 7 -4 6 0 -2 10 -13 17 -7 22 21 18 4 0 5 6 1 15
-5 13 -7 13 -14 2 -6 -9 -8 -4 -7 15 1 15 8 27 15 27 6 0 15 5 19 12 5 7 2 9
-8 5 -24 -9 -30 4 -10 20 9 8 11 12 5 8 -7 -3 -13 -1 -13 4 0 6 5 11 10 11 6
0 8 11 6 25 -3 13 0 27 5 31 5 3 7 10 4 15 -9 13 9 11 25 -3 8 -7 6 -2 -5 11
-18 22 -18 24 -2 18 10 -4 16 -3 12 2 -3 5 1 12 7 15 7 3 2 3 -12 -1 -21 -5
-23 -4 -13 9 7 8 10 18 7 21 -3 3 -2 12 2 19 5 7 10 22 11 32 4 24 13 35 13
15 0 -8 9 -15 20 -16 13 -1 18 2 14 9 -4 7 -2 8 5 4 6 -4 8 -13 4 -19 -4 -7 2
-5 12 3 17 13 18 13 13 -1 -4 -9 -1 -16 8 -16 7 0 11 3 9 7 -2 4 2 7 10 7 8 0
11 -5 8 -10 -8 -13 19 -28 40 -21 12 4 17 0 17 -13 0 -11 3 -14 8 -7 8 13 52
0 52 -15 0 -6 7 -8 15 -5 9 4 23 -2 33 -12 38 -41 51 -48 69 -33 11 10 14 10
9 2 -5 -9 0 -13 16 -13 13 0 32 -7 42 -15 10 -8 23 -12 29 -8 5 3 6 -4 2 -18
-7 -23 -7 -24 9 -4 15 20 15 20 16 -5 1 -14 4 -19 7 -12 2 6 9 12 14 12 6 0 7
-4 4 -10 -4 -6 1 -7 11 -3 13 5 15 2 9 -18 -3 -13 -3 -19 2 -13 12 17 36 22
54 13 11 -6 22 -2 34 11 10 11 22 17 28 13 6 -4 8 0 4 9 -3 9 2 23 13 33 11
10 18 22 17 29 -1 6 4 10 12 8 9 -2 11 3 7 14 -6 15 -4 15 11 3 9 -8 14 -9 10
-2 -4 6 -3 14 2 17 5 3 7 16 3 28 -4 17 -2 20 12 15 14 -6 15 -3 6 13 -9 17
-7 20 12 21 22 0 22 1 3 9 -11 5 -14 9 -7 9 7 1 11 5 7 10 -3 5 2 16 10 24 17
17 20 31 5 22 -6 -3 -7 1 -4 10 5 13 9 13 22 3 13 -11 14 -10 4 9 -9 16 -9 22
2 26 7 3 20 0 27 -6 10 -10 10 -8 0 6 -12 15 -11 20 5 33 18 14 18 15 -3 5
-12 -6 -24 -16 -26 -23 -4 -10 -6 -10 -6 -1 -1 7 13 22 29 35 17 12 30 27 30
32 0 6 -5 4 -10 -4 -5 -8 -10 -10 -10 -5 0 6 5 17 10 25 9 13 11 13 20 0 5 -8
10 -10 10 -5 0 6 -5 16 -12 23 -9 9 -7 12 9 12 26 0 38 16 22 26 -8 4 -9 3 -5
-4 4 -7 1 -12 -8 -12 -10 0 -13 6 -10 15 4 8 10 15 14 15 7 0 22 64 24 105 1
11 5 27 10 35 5 8 6 12 1 8 -11 -11 -35 11 -34 31 0 12 2 11 9 -4 6 -15 9 -16
9 -4 1 23 -10 30 -26 17 -8 -6 -13 -7 -12 -2 4 23 -3 33 -23 36 -19 2 -23 9
-21 32 2 27 2 28 -12 10 -15 -19 -15 -19 -8 0 5 15 3 18 -8 14 -8 -3 -25 3
-38 13 -13 11 -19 19 -15 20 5 0 -1 4 -13 9 -13 5 -23 17 -23 26 0 14 -3 14
-16 4 -8 -8 -14 -9 -13 -4 1 5 1 16 0 24 -1 13 -2 13 -11 0 -7 -11 -10 -11
-10 -2 0 7 -4 11 -9 8 -5 -3 -20 5 -34 18 -14 13 -29 21 -34 17 -4 -3 -1 3 7
14 8 11 10 17 6 13 -5 -4 -16 -2 -24 5 -13 10 -14 9 -7 -3 5 -10 2 -10 -11 3
-10 9 -30 26 -44 37 -21 17 -23 21 -10 30 20 13 4 13 -21 0 -11 -6 -18 -7 -17
-3 2 4 -1 10 -7 11 -23 8 -35 26 -30 46 5 19 5 19 -5 4 -6 -10 -16 -18 -22
-18 -7 0 -7 5 1 14 10 12 8 14 -14 12 -14 -2 -23 -1 -20 2 3 3 -13 14 -35 24
-22 10 -40 23 -40 28 0 6 -7 10 -16 10 -10 0 -14 6 -10 15 3 8 1 15 -4 15 -5
0 -10 -7 -12 -16 -2 -13 -7 -12 -23 7 -18 22 -18 22 -1 9 18 -14 18 -14 6 7
-13 20 -15 20 -28 5 -7 -9 -10 -11 -6 -3 5 11 3 13 -9 8 -11 -4 -17 -1 -17 7
0 10 -7 12 -22 8 -19 -5 -21 -3 -11 9 10 12 8 15 -7 15 -10 0 -16 -4 -13 -9 3
-5 -5 -3 -18 4 -13 7 -25 12 -26 11 -9 -6 -23 0 -23 9 0 8 4 8 13 1 9 -8 17
-8 27 0 12 8 12 9 -2 4 -10 -3 -20 -1 -24 5 -4 7 -10 6 -18 0 -16 -14 -26 -4
-19 17 4 13 1 12 -11 -3 -15 -19 -17 -19 -30 -2 -15 19 -31 23 -20 5 6 -10 5
-10 -8 -1 -8 7 -18 10 -21 6 -7 -6 -11 12 -8 30 1 5 -3 6 -9 2 -6 -3 -7 -12
-3 -18 3 -7 -3 -4 -14 6 -11 9 -24 17 -29 17 -5 0 -2 -5 6 -10 10 -7 11 -10 2
-10 -7 0 -20 9 -29 19 -13 16 -21 18 -36 9 -12 -6 -17 -6 -13 0 3 5 -1 13 -10
16 -8 3 -12 2 -9 -4 4 -6 -2 -7 -18 -1 -14 6 -28 7 -31 4 -6 -6 -10 13 -7 30
1 5 -3 6 -9 2 -6 -3 -7 -11 -4 -17 5 -7 2 -8 -7 -2 -14 9 -19 10 -40 13 -6 0
-8 10 -4 20 3 11 2 22 -3 25 -6 3 -9 -2 -8 -11 0 -9 -5 -18 -11 -20 -7 -3 -13
0 -13 7 0 6 6 8 13 4 6 -4 8 -3 4 1 -10 12 -38 15 -31 4 7 -12 -3 -11 -43 3
-18 7 -33 15 -33 20 0 4 -7 5 -15 2 -8 -4 -17 1 -21 10 -3 9 -12 16 -19 16
-23 0 -65 48 -59 67 5 17 5 17 -6 0 -12 -18 -30 -15 -30 6 0 7 4 6 11 -3 9
-13 10 -13 6 0 -2 8 -12 14 -21 12 -16 -3 -49 21 -41 30 3 3 -2 5 -10 5 -8 0
-12 -4 -9 -9 3 -4 0 -8 -5 -8 -6 0 -11 6 -11 13 0 8 -3 8 -9 -2 -7 -11 -10
-10 -14 5 -4 17 -5 17 -6 1 0 -10 -6 -15 -11 -12 -6 4 -7 11 -4 17 4 7 2 8 -5
4 -6 -4 -9 -12 -6 -17 4 -5 3 -9 -2 -10 -4 0 -22 -2 -40 -3 -25 -3 -30 0 -26
13 4 9 -3 5 -15 -9 -23 -27 -28 -21 -11 13 7 16 4 14 -11 -5 -22 -28 -23 -29
-98 -14 -13 3 -20 1 -17 -5 4 -5 11 -6 17 -3 6 4 8 3 5 -2 -6 -10 -75 -10
-115 0 -13 3 -20 1 -17 -5 9 -13 -9 -11 -23 3 -9 9 -12 9 -12 -2 0 -13 -2 -13
-9 -1 -12 19 -41 23 -35 6 6 -14 -19 -15 -32 -2 -12 11 -26 8 -18 -4 4 -8 0
-8 -15 0 -12 7 -27 9 -33 5 -7 -5 -9 -2 -5 9 3 9 1 19 -5 23 -7 5 -8 2 -3 -6
6 -10 4 -12 -8 -7 -9 3 -19 2 -22 -3 -10 -15 -55 -7 -56 10 0 10 -3 9 -9 -5
-7 -17 -9 -17 -9 -2 -1 9 -6 17 -12 17 -5 0 -7 -4 -4 -10 3 -5 -1 -10 -9 -10
-9 0 -16 6 -16 13 0 8 -4 7 -10 -3 -8 -13 -10 -12 -10 4 0 20 0 20 -14 0 -14
-19 -15 -19 -29 0 -13 18 -14 18 -13 -5z m211 -19 c3 -5 1 -10 -4 -10 -6 0
-11 5 -11 10 0 6 2 10 4 10 3 0 8 -4 11 -10z m1440 -1340 c3 -5 1 -10 -4 -10
-6 0 -11 5 -11 10 0 6 2 10 4 10 3 0 8 -4 11 -10z m-2451 -12 c-4 -5 -9 -7
-12 -4 -3 3 -11 1 -19 -5 -8 -8 -13 -8 -13 -1 0 11 16 19 37 19 7 0 10 -4 7
-9z m2627 -75 c13 -16 12 -17 -3 -4 -17 13 -22 21 -14 21 2 0 10 -8 17 -17z
m-1411 -2435 c0 -4 -4 -8 -9 -8 -6 0 -12 4 -15 8 -3 5 1 9 9 9 8 0 15 -4 15
-9z"/>
<path d="M1990 4176 c7 -7 13 -7 20 0 6 6 3 10 -10 10 -13 0 -16 -4 -10 -10z"/>
<path d="M2127 4179 c7 -7 15 -10 18 -7 3 3 -2 9 -12 12 -14 6 -15 5 -6 -5z"/>
<path d="M2691 4174 c0 -11 3 -14 6 -6 3 7 2 16 -1 19 -3 4 -6 -2 -5 -13z"/>
<path d="M2293 4167 c0 -7 9 -14 20 -14 11 -1 18 -1 16 0 -2 2 -11 8 -20 15
-12 9 -16 9 -16 -1z"/>
<path d="M1741 4138 c-1 -21 15 -32 25 -17 4 7 3 9 -4 5 -6 -3 -13 2 -15 11
-4 16 -5 16 -6 1z"/>
<path d="M1720 4099 c0 -5 5 -7 10 -4 6 3 10 8 10 11 0 2 -4 4 -10 4 -5 0 -10
-5 -10 -11z"/>
<path d="M2776 4095 c10 -8 23 -15 28 -15 6 0 1 7 -10 15 -10 8 -23 15 -28 15
-6 0 -1 -7 10 -15z"/>
<path d="M1686 4074 c-5 -14 -4 -15 9 -4 17 14 19 20 6 20 -5 0 -12 -7 -15
-16z"/>
<path d="M2830 4059 c0 -5 5 -7 10 -4 6 3 10 8 10 11 0 2 -4 4 -10 4 -5 0 -10
-5 -10 -11z"/>
<path d="M2871 4046 c2 -2 14 -9 26 -15 18 -9 22 -9 18 2 -3 7 -15 13 -26 14
-12 1 -20 1 -18 -1z"/>
<path d="M1430 3996 c0 -2 7 -7 16 -10 8 -3 12 -2 9 4 -6 10 -25 14 -25 6z"/>
<path d="M3066 3978 c3 -4 9 -8 15 -8 5 0 9 4 9 8 0 5 -7 9 -15 9 -8 0 -12 -4
-9 -9z"/>
<path d="M1296 3938 c3 -5 10 -6 15 -3 13 9 11 12 -6 12 -8 0 -12 -4 -9 -9z"/>
<path d="M1268 3923 c7 -3 16 -2 19 1 4 3 -2 6 -13 5 -11 0 -14 -3 -6 -6z"/>
<path d="M956 3822 c-2 -4 -1 -14 4 -22 7 -11 9 -9 7 8 -1 24 -3 26 -11 14z"/>
<path d="M3650 3760 c-9 -6 -10 -10 -3 -10 6 0 15 5 18 10 8 12 4 12 -15 0z"/>
<path d="M776 3698 c3 -5 10 -6 15 -3 13 9 11 12 -6 12 -8 0 -12 -4 -9 -9z"/>
<path d="M3756 3668 c3 -5 10 -6 15 -3 13 9 11 12 -6 12 -8 0 -12 -4 -9 -9z"/>
<path d="M3826 3618 c3 -5 10 -6 15 -3 13 9 11 12 -6 12 -8 0 -12 -4 -9 -9z"/>
<path d="M3875 3600 c3 -5 8 -10 11 -10 2 0 4 5 4 10 0 6 -5 10 -11 10 -5 0
-7 -4 -4 -10z"/>
<path d="M615 3580 c3 -5 8 -10 11 -10 2 0 4 5 4 10 0 6 -5 10 -11 10 -5 0 -7
-4 -4 -10z"/>
<path d="M3933 3554 c-5 -15 27 -48 37 -37 3 2 -3 9 -13 14 -21 12 -23 31 -2
23 8 -4 15 -4 15 -1 0 14 -31 15 -37 1z"/>
<path d="M522 3514 c-7 -8 -18 -12 -23 -8 -5 3 -8 0 -7 -8 2 -7 -2 -12 -9 -11
-6 1 -14 -4 -17 -13 -4 -11 -2 -12 12 -5 31 18 67 50 62 54 -3 3 -11 -1 -18
-9z"/>
<path d="M4045 3479 c-4 -6 -5 -12 -2 -15 2 -3 7 2 10 11 7 17 1 20 -8 4z"/>
<path d="M4095 3420 c3 -5 8 -10 11 -10 2 0 4 5 4 10 0 6 -5 10 -11 10 -5 0
-7 -4 -4 -10z"/>
<path d="M4155 3370 c-3 -5 -1 -10 4 -10 6 0 11 5 11 10 0 6 -2 10 -4 10 -3 0
-8 -4 -11 -10z"/>
<path d="M4240 3206 c0 -2 7 -7 16 -10 8 -3 12 -2 9 4 -6 10 -25 14 -25 6z"/>
<path d="M381 2933 c7 -12 15 -20 18 -17 3 2 -3 12 -13 22 -17 16 -18 16 -5
-5z"/>
<path d="M1147 2853 c-10 -9 -9 -23 1 -23 5 0 9 7 9 15 0 17 -1 18 -10 8z"/>
<path d="M3344 2833 c3 -4 1 -12 -6 -20 -8 -10 -8 -17 1 -26 7 -7 12 -7 11 -2
-4 19 0 35 8 33 4 -2 9 1 12 6 3 5 -3 10 -13 12 -11 1 -16 0 -13 -3z"/>
<path d="M1136 2803 c-6 -14 -5 -15 5 -6 7 7 10 15 7 18 -3 3 -9 -2 -12 -12z"/>
<path d="M451 2774 c0 -11 3 -14 6 -6 3 7 2 16 -1 19 -3 4 -6 -2 -5 -13z"/>
<path d="M889 2743 c-12 -16 -12 -17 2 -6 9 7 20 9 24 5 5 -4 5 -1 1 6 -9 16
-11 15 -27 -5z"/>
<path d="M3553 2745 c0 -8 4 -12 9 -9 5 3 6 10 3 15 -9 13 -12 11 -12 -6z"/>
<path d="M1175 2720 c-3 -5 -2 -10 4 -10 5 0 13 5 16 10 3 6 2 10 -4 10 -5 0
-13 -4 -16 -10z"/>
<path d="M4013 2725 c4 -5 -2 -19 -14 -31 -12 -13 -16 -24 -10 -28 5 -4 12 -2
16 4 3 5 3 10 -1 10 -4 0 1 9 10 19 14 15 15 21 4 27 -7 4 -10 3 -5 -1z"/>
<path d="M477 2707 c-3 -8 1 -14 8 -14 7 0 11 6 8 14 -3 7 -6 13 -8 13 -2 0
-5 -6 -8 -13z"/>
<path d="M815 2701 c-3 -5 -2 -12 3 -15 5 -3 9 1 9 9 0 17 -3 19 -12 6z"/>
<path d="M3718 2693 c7 -3 16 -2 19 1 4 3 -2 6 -13 5 -11 0 -14 -3 -6 -6z"/>
<path d="M3320 2680 c-9 -6 -10 -10 -3 -10 6 0 15 5 18 10 8 12 4 12 -15 0z"/>
<path d="M725 2670 c-4 -6 -11 -8 -16 -5 -16 10 -10 -2 9 -16 9 -7 14 -9 10
-5 -4 5 -3 15 3 23 6 7 9 13 6 13 -3 0 -9 -5 -12 -10z"/>
<path d="M520 2656 c0 -2 7 -7 16 -10 8 -3 12 -2 9 4 -6 10 -25 14 -25 6z"/>
<path d="M656 2642 c-3 -5 1 -9 9 -9 8 0 12 4 9 9 -3 4 -7 8 -9 8 -2 0 -6 -4
-9 -8z"/>
<path d="M3315 2581 c-3 -5 -2 -12 3 -15 5 -3 9 1 9 9 0 17 -3 19 -12 6z"/>
<path d="M1210 2559 c0 -5 5 -7 10 -4 6 3 10 8 10 11 0 2 -4 4 -10 4 -5 0 -10
-5 -10 -11z"/>
<path d="M3276 2481 c-3 -5 2 -15 12 -22 15 -12 16 -12 5 2 -7 9 -10 19 -6 22
3 4 4 7 0 7 -3 0 -8 -4 -11 -9z"/>
<path d="M3266 2434 c-8 -22 -4 -25 11 -9 7 8 9 16 4 19 -5 3 -12 -1 -15 -10z"/>
<path d="M1230 2401 c0 -6 4 -13 10 -16 6 -3 7 1 4 9 -7 18 -14 21 -14 7z"/>
<path d="M3263 2365 c0 -8 4 -12 9 -9 5 3 6 10 3 15 -9 13 -12 11 -12 -6z"/>
<path d="M3275 2300 c3 -5 8 -10 11 -10 2 0 4 5 4 10 0 6 -5 10 -11 10 -5 0
-7 -4 -4 -10z"/>
<path d="M1226 2238 c3 -4 11 -5 19 -1 21 7 19 12 -4 10 -11 0 -18 -5 -15 -9z"/>
<path d="M3270 2240 c0 -5 5 -10 11 -10 5 0 7 5 4 10 -3 6 -8 10 -11 10 -2 0
-4 -4 -4 -10z"/>
<path d="M3270 2199 c0 -5 5 -7 10 -4 6 3 10 8 10 11 0 2 -4 4 -10 4 -5 0 -10
-5 -10 -11z"/>
<path d="M1237 2159 c7 -7 15 -10 18 -7 3 3 -2 9 -12 12 -14 6 -15 5 -6 -5z"/>
<path d="M3262 2147 c10 -8 14 -18 10 -22 -4 -5 -1 -5 6 -1 17 10 15 14 -10
26 -21 10 -21 10 -6 -3z"/>
<path d="M3253 2087 c0 -8 6 -14 14 -14 9 0 10 4 2 14 -6 7 -12 13 -14 13 -1
0 -2 -6 -2 -13z"/>
<path d="M1230 2086 c0 -2 7 -7 16 -10 8 -3 12 -2 9 4 -6 10 -25 14 -25 6z"/>
<path d="M3273 2005 c0 -8 4 -12 9 -9 5 3 6 10 3 15 -9 13 -12 11 -12 -6z"/>
<path d="M3250 1905 c0 -5 5 -17 10 -25 5 -8 10 -10 10 -5 0 6 -5 17 -10 25
-5 8 -10 11 -10 5z"/>
<path d="M3263 1842 c10 -10 14 -22 10 -27 -5 -4 -2 -5 5 -1 11 6 10 12 -4 27
-9 10 -19 19 -22 19 -3 0 2 -8 11 -18z"/>
<path d="M3256 1703 c-6 -14 -5 -15 5 -6 7 7 10 15 7 18 -3 3 -9 -2 -12 -12z"/>
<path d="M1235 1700 c-3 -6 1 -7 9 -4 18 7 21 14 7 14 -6 0 -13 -4 -16 -10z"/>
<path d="M3253 1665 c0 -8 4 -12 8 -9 4 2 10 -2 12 -8 4 -8 6 -9 6 -2 1 6 -5
17 -12 23 -10 8 -14 7 -14 -4z"/>
<path d="M1236 1607 c-16 -12 -16 -13 2 -13 10 0 19 6 19 13 0 7 -1 13 -2 13
-1 0 -9 -6 -19 -13z"/>
<path d="M1230 1500 c0 -5 5 -10 11 -10 5 0 7 5 4 10 -3 6 -8 10 -11 10 -2 0
-4 -4 -4 -10z"/>
<path d="M1225 1457 c11 -9 15 -19 10 -28 -6 -11 -5 -12 5 -2 11 10 11 15 0
28 -7 8 -17 15 -23 15 -6 0 -3 -6 8 -13z"/>
<path d="M1233 1375 c0 -8 4 -12 9 -9 5 3 6 10 3 15 -9 13 -12 11 -12 -6z"/>
<path d="M3260 1366 c0 -2 7 -7 16 -10 8 -3 12 -2 9 4 -6 10 -25 14 -25 6z"/>
<path d="M3266 1313 c-6 -14 -5 -15 5 -6 7 7 10 15 7 18 -3 3 -9 -2 -12 -12z"/>
<path d="M1204 1182 c4 -3 14 -7 22 -8 9 -1 13 0 10 4 -4 3 -14 7 -22 8 -9 1
-13 0 -10 -4z"/>
<path d="M3275 1169 c-4 -6 -5 -12 -2 -15 2 -3 7 2 10 11 7 17 1 20 -8 4z"/>
<path d="M3274 1126 c1 -8 5 -18 8 -22 4 -3 5 1 4 10 -1 8 -5 18 -8 22 -4 3
-5 -1 -4 -10z"/>
<path d="M1215 1060 c-3 -5 -1 -10 4 -10 6 0 11 5 11 10 0 6 -2 10 -4 10 -3 0
-8 -4 -11 -10z"/>
<path d="M1214 908 c2 -15 0 -28 -7 -31 -6 -2 -4 -6 5 -9 12 -5 15 0 13 23 -1
17 -6 33 -9 37 -4 3 -5 -5 -2 -20z"/>
<path d="M3306 858 c3 -5 10 -6 15 -3 13 9 11 12 -6 12 -8 0 -12 -4 -9 -9z"/>
<path d="M1205 840 c-3 -5 -4 -10 0 -10 3 0 0 -10 -6 -22 -8 -17 -8 -20 0 -12
6 6 13 20 16 32 4 23 0 28 -10 12z"/>
<path d="M3286 818 c3 -5 10 -6 15 -3 13 9 11 12 -6 12 -8 0 -12 -4 -9 -9z"/>
<path d="M3305 800 c-3 -6 1 -7 9 -4 18 7 21 14 7 14 -6 0 -13 -4 -16 -10z"/>
<path d="M3310 770 c-9 -6 -10 -10 -3 -10 6 0 15 5 18 10 8 12 4 12 -15 0z"/>
<path d="M1197 633 c-10 -9 -9 -23 1 -23 5 0 9 7 9 15 0 17 -1 18 -10 8z"/>
<path d="M3320 560 c-8 -5 -12 -12 -9 -15 4 -3 12 1 19 10 14 17 11 19 -10 5z"/>
<path d="M1196 522 c-2 -4 -1 -14 4 -22 7 -11 9 -9 7 8 -1 24 -3 26 -11 14z"/>
<path d="M3309 443 c-13 -16 -12 -17 4 -4 16 13 21 21 13 21 -2 0 -10 -8 -17
-17z"/>
<path d="M3295 380 c3 -5 8 -10 11 -10 2 0 4 5 4 10 0 6 -5 10 -11 10 -5 0 -7
-4 -4 -10z"/>
<path d="M1246 338 c3 -5 10 -6 15 -3 13 9 11 12 -6 12 -8 0 -12 -4 -9 -9z"/>
<path d="M3111 327 c-8 -10 -7 -14 2 -14 8 0 14 6 14 14 0 7 -1 13 -2 13 -2 0
-8 -6 -14 -13z"/>
<path d="M1439 328 c-5 -18 -6 -38 -1 -34 7 8 12 36 6 36 -2 0 -4 -1 -5 -2z"/>
<path d="M3075 320 c-3 -5 -1 -10 4 -10 6 0 11 5 11 10 0 6 -2 10 -4 10 -3 0
-8 -4 -11 -10z"/>
<path d="M2970 311 c0 -6 4 -13 10 -16 6 -3 7 1 4 9 -7 18 -14 21 -14 7z"/>
<path d="M1606 302 c-3 -5 1 -9 9 -9 8 0 12 4 9 9 -3 4 -7 8 -9 8 -2 0 -6 -4
-9 -8z"/>
<path d="M1650 301 c0 -6 4 -13 10 -16 6 -3 7 1 4 9 -7 18 -14 21 -14 7z"/>
<path d="M1694 302 c4 -3 14 -7 22 -8 9 -1 13 0 10 4 -4 3 -14 7 -22 8 -9 1
-13 0 -10 -4z"/>
<path d="M2736 298 c3 -5 10 -6 15 -3 13 9 11 12 -6 12 -8 0 -12 -4 -9 -9z"/>
<path d="M2773 297 c-3 -4 -2 -11 1 -14 3 -4 6 -1 6 5 0 6 9 9 20 7 11 -2 22
0 24 4 3 4 -7 7 -20 7 -14 0 -28 -4 -31 -9z"/>
<path d="M2846 302 c-2 -4 4 -8 14 -8 10 0 16 4 14 8 -3 4 -9 8 -14 8 -5 0
-11 -4 -14 -8z"/>
<path d="M1860 296 c0 -2 7 -9 15 -16 9 -7 15 -8 15 -2 0 5 -7 12 -15 16 -8 3
-15 4 -15 2z"/>
<path d="M2555 290 c-3 -6 1 -7 9 -4 18 7 21 14 7 14 -6 0 -13 -4 -16 -10z"/>
<path d="M2643 293 c9 -2 14 -9 11 -15 -4 -7 -2 -8 5 -4 15 10 4 26 -17 25
-15 -1 -15 -2 1 -6z"/>
<path d="M2120 280 c-12 -7 -10 -9 7 -7 12 0 19 5 17 9 -6 10 -6 10 -24 -2z"/>
<path d="M2310 279 c0 -5 5 -7 10 -4 6 3 10 8 10 11 0 2 -4 4 -10 4 -5 0 -10
-5 -10 -11z"/>
<path d="M2710 279 c0 -5 5 -7 10 -4 6 3 10 8 10 11 0 2 -4 4 -10 4 -5 0 -10
-5 -10 -11z"/>
<path d="M2895 280 c-3 -5 -1 -10 4 -10 6 0 11 5 11 10 0 6 -2 10 -4 10 -3 0
-8 -4 -11 -10z"/>
<path d="M1990 276 c0 -2 8 -10 18 -17 15 -13 16 -12 3 4 -13 16 -21 21 -21
13z"/>
</g>
</svg>
