<?xml version="1.0" encoding="UTF-8" standalone="no"?>
<!-- Created with Inkscape (http://www.inkscape.org/) -->

<svg
   xmlns:dc="http://purl.org/dc/elements/1.1/"
   xmlns:cc="http://creativecommons.org/ns#"
   xmlns:rdf="http://www.w3.org/1999/02/22-rdf-syntax-ns#"
   xmlns:svg="http://www.w3.org/2000/svg"
   xmlns="http://www.w3.org/2000/svg"
   xmlns:sodipodi="http://sodipodi.sourceforge.net/DTD/sodipodi-0.dtd"
   xmlns:inkscape="http://www.inkscape.org/namespaces/inkscape"
   width="80mm"
   height="80mm"
   viewBox="0 0 283.46456 283.46457"
   id="svg2"
   version="1.1"
   inkscape:version="0.91 r13725"
   sodipodi:docname="vq.svg">
  <defs
     id="defs4" />
  <sodipodi:namedview
     id="base"
     pagecolor="#ffffff"
     bordercolor="#666666"
     borderopacity="1.0"
     inkscape:pageopacity="0.0"
     inkscape:pageshadow="2"
     inkscape:zoom="0.7"
     inkscape:cx="407.55565"
     inkscape:cy="10.272456"
     inkscape:document-units="px"
     inkscape:current-layer="layer2"
     showgrid="false"
     inkscape:window-width="1536"
     inkscape:window-height="811"
     inkscape:window-x="154"
     inkscape:window-y="1072"
     inkscape:window-maximized="1" />
  <metadata
     id="metadata7">
    <rdf:RDF>
      <cc:Work
         rdf:about="">
        <dc:format>image/svg+xml</dc:format>
        <dc:type
           rdf:resource="http://purl.org/dc/dcmitype/StillImage" />
        <dc:title></dc:title>
      </cc:Work>
    </rdf:RDF>
  </metadata>
  <g
     inkscape:groupmode="layer"
     id="layer4"
     inkscape:label="Layer 4">
    <g
       inkscape:label="Layer 1"
       inkscape:groupmode="layer"
       id="layer1"
       style="display:inline"
       transform="translate(0,-768.89764)">
      <flowRoot
         xml:space="preserve"
         id="flowRoot4136"
         style="font-style:normal;font-variant:normal;font-weight:normal;font-stretch:normal;font-size:250px;line-height:125%;font-family:'Olde English';-inkscape-font-specification:'Olde English';letter-spacing:0px;word-spacing:0px;fill:#645a82;fill-opacity:1;stroke:none;stroke-width:1px;stroke-linecap:butt;stroke-linejoin:miter;stroke-opacity:1;"
         transform="translate(-102.21401,395.67721)"><flowRegion
           id="flowRegion4138"><rect
             id="rect4140"
             width="265.71429"
             height="354.28571"
             x="137.14285"
             y="355.21936"
             style="font-style:normal;font-variant:normal;font-weight:normal;font-stretch:normal;font-size:250px;font-family:'Olde English';-inkscape-font-specification:'Olde English';fill:#645a82;fill-opacity:1;" /></flowRegion><flowPara
           id="flowPara4142"
           style="font-size:250px;fill:#645a82;fill-opacity:1;">V</flowPara></flowRoot>    </g>
    <g
       inkscape:groupmode="layer"
       id="layer3"
       inkscape:label="Layer 3"
       style="display:none"
       transform="translate(0,-768.89764)">
      <path
         style="display:inline;fill:#800000;fill-rule:evenodd;stroke:#000000;stroke-width:1px;stroke-linecap:butt;stroke-linejoin:miter;stroke-opacity:1"
         d="m 113.66071,190.93363 16.16072,-8.57143 15.35714,-4.19643 10,-1.42857 18.04014,-16.08573 L 172.98862,58.624637 172.35728,13.799118 87.3782,76.049769 86.368047,185.65132 107.58125,193.48 Z"
         id="path4166"
         inkscape:connector-curvature="0"
         sodipodi:nodetypes="ccccccccccc" />
    </g>
    <g
       style="display:inline"
       inkscape:label="Layer 2 kopia"
       id="g4186"
       inkscape:groupmode="layer"
       transform="translate(0,-768.89764)" />
    <g
       inkscape:groupmode="layer"
       id="layer2"
       inkscape:label="Layer 2"
       style="display:inline"
       transform="translate(0,-768.89764)">
      <g
         transform="translate(-258.21401,609.67722)"
         style="font-style:normal;font-weight:normal;font-size:250px;line-height:125%;font-family:sans-serif;letter-spacing:0px;word-spacing:0px;fill:#645a82;fill-opacity:1;stroke:none;stroke-width:1px;stroke-linecap:butt;stroke-linejoin:miter;stroke-opacity:1"
         id="flowRoot4144">
        <path
           d="m 404,330.68513 3.75,4.5 21.75,-17.5 0,-100 7.75,-5.75 0,110.75 -20.5,17.5 3.75,4.5 5.5,-4.5 11,13 q -3.25,0.25 -5,0.25 -1.75,0 -2.25,0 -18.75,0 -32.25,-18 -13.25,-18.5 -13.25,-59 0,-29.25 6.5,-46.5 7.75,-20.25 29.75,-35.5 l -3.25,-5 q -25.75,14.5 -41.25,37.25 -16.5,24.5 -16.5,52.5 0,32 20,55.5 21.5,24.5 52.75,24.5 3.5,0 8.75,-0.75 6.75,8.75 10.75,12.75 5.75,5.75 15,5.75 8.75,0 16,-5.5 7.5,-5.5 10.75,-13.25 l -5.25,-2.75 q -5,9.75 -12.75,9.75 -5.5,0 -16,-12.75 44.5,-27.25 44.5,-84 0,-50.25 -44,-80 l -16.75,11.5 0,-9.5 -6,0 0,13.75 -40,29.75 3.5,4.75 9.25,-6.5 0,93.25 -6,5.25 z m 77.25,-27.25 q -5.25,32 -25.75,43.5 l -12.25,-16.5 0,-28.5 q 7.5,-4.5 17.25,-4.5 12.5,0 20.75,6 z m -20.5,-11.75 q -9.75,0 -17.5,4 l 0,-44 q 8.5,3.75 18,3.75 7.25,0 18.25,-3.75 4,14.5 4,31.25 0,7.25 -1.25,14.25 -10.75,-5.5 -21.5,-5.5 z m -0.25,-42.25 q -8.25,0 -17.25,-3.5 l 0,-40.25 q 25.25,15.5 34.5,40.25 -9.25,3.5 -17.25,3.5 z"
           style="font-style:normal;font-variant:normal;font-weight:normal;font-stretch:normal;font-size:250px;font-family:'Olde English';-inkscape-font-specification:'Olde English';fill:#645a82;fill-opacity:1"
           id="path4161"
           inkscape:connector-curvature="0" />
      </g>
    </g>
  </g>
</svg>
